<?xml version="1.0" encoding="UTF-8" standalone="no"?>
<!DOCTYPE svg PUBLIC "-//W3C//DTD SVG 1.1//EN" "http://www.w3.org/Graphics/SVG/1.1/DTD/svg11.dtd">
<svg width="100%" height="100%" viewBox="0 0 527 595" version="1.1" xmlns="http://www.w3.org/2000/svg" xmlns:xlink="http://www.w3.org/1999/xlink" xml:space="preserve" xmlns:serif="http://www.serif.com/" style="fill-rule:evenodd;clip-rule:evenodd;stroke-linecap:round;stroke-linejoin:round;stroke-miterlimit:10;">
    <g transform="matrix(1,0,0,1,-6201.489985,-12599.879421)">
        <g transform="matrix(8.333333,0,0,8.333333,0,0)">
            <g transform="matrix(1,0,0,1,789.7148,1576.5774)">
                <path d="M0,-57.202L15.45,-36.167C18.4,-32.151 15.659,-26.462 10.677,-26.277L-15.359,-25.286L2.548,3.099C3.592,4.753 1.474,6.572 -0.003,5.289L-42.771,-31.839C-46.204,-34.812 -44.319,-40.456 -39.786,-40.772L-26.668,-41.699L-38.874,-54.482C-41.778,-57.524 -39.732,-62.564 -35.531,-62.727L-13.21,-63.581C-8.022,-63.774 -3.075,-61.387 0,-57.202Z" style="fill:rgb(94,100,115);fill-rule:nonzero;stroke:white;stroke-width:2px;"/>
            </g>
        </g>
    </g>
</svg>
