<?xml version="1.0" encoding="UTF-8" standalone="no"?>
<!DOCTYPE svg PUBLIC "-//W3C//DTD SVG 1.1//EN" "http://www.w3.org/Graphics/SVG/1.1/DTD/svg11.dtd">
<svg width="100%" height="100%" viewBox="0 0 1406 417" version="1.1" xmlns="http://www.w3.org/2000/svg" xmlns:xlink="http://www.w3.org/1999/xlink" xml:space="preserve" xmlns:serif="http://www.serif.com/" style="fill-rule:evenodd;clip-rule:evenodd;stroke-linejoin:round;stroke-miterlimit:2;">
    <g transform="matrix(1,0,0,1,-6145.654167,-33173.123333)">
        <g transform="matrix(8.333333,0,0,8.333333,0,0)">
            <g transform="matrix(1.127847,0,0,1,892.744712,4030.7748)">
                <path d="M0,-50L-125.748,-50C-126.206,-50 -126.658,-50 -127.116,-49.997C-127.498,-49.995 -127.878,-49.987 -128.266,-49.982C-129.104,-49.972 -129.941,-49.898 -130.77,-49.761C-131.597,-49.621 -132.397,-49.356 -133.146,-48.978C-133.894,-48.595 -134.575,-48.098 -135.17,-47.504C-135.767,-46.911 -136.264,-46.228 -136.641,-45.479C-137.021,-44.729 -137.285,-43.927 -137.424,-43.099C-137.563,-42.271 -137.637,-41.436 -137.648,-40.596C-137.659,-40.212 -137.661,-39.828 -137.666,-39.445L-137.666,-10.553C-137.661,-10.164 -137.659,-9.788 -137.648,-9.399C-137.637,-8.561 -137.563,-7.725 -137.424,-6.897C-137.285,-6.069 -137.023,-5.267 -136.641,-4.517C-136.264,-3.77 -135.767,-3.088 -135.17,-2.499C-134.577,-1.902 -133.895,-1.405 -133.146,-1.025C-132.397,-0.646 -131.597,-0.38 -130.77,-0.237C-129.941,-0.101 -129.104,-0.027 -128.266,-0.017C-127.878,-0.008 -127.498,-0.003 -127.116,-0.003C-126.658,0 -126.206,0 -125.748,0L0,0C0.449,0 0.905,0 1.354,-0.003C1.735,-0.003 2.125,-0.008 2.507,-0.017C3.345,-0.026 4.181,-0.101 5.007,-0.237C5.836,-0.381 6.642,-0.646 7.393,-1.025C8.14,-1.406 8.822,-1.902 9.413,-2.499C10.01,-3.09 10.508,-3.771 10.891,-4.517C11.269,-5.267 11.528,-6.069 11.664,-6.897C11.804,-7.725 11.881,-8.561 11.896,-9.399C11.9,-9.788 11.9,-10.164 11.9,-10.553C11.911,-11.006 11.911,-11.458 11.911,-11.919L11.911,-38.08C11.911,-38.538 11.911,-38.991 11.9,-39.445C11.9,-39.828 11.9,-40.212 11.896,-40.596C11.881,-41.436 11.804,-42.271 11.664,-43.099C11.528,-43.927 11.269,-44.729 10.891,-45.479C10.118,-46.981 8.896,-48.206 7.393,-48.978C6.642,-49.355 5.835,-49.62 5.007,-49.761C4.181,-49.898 3.345,-49.973 2.507,-49.982C2.125,-49.988 1.735,-49.996 1.354,-49.998C0.905,-50 0.449,-50 0,-50" style="fill:rgb(154,156,157);fill-rule:nonzero;"/>
            </g>
            <g transform="matrix(1.127847,0,0,1,749.384844,3981.8711)">
                <path d="M0,47.81C-0.381,47.81 -0.754,47.804 -1.131,47.796C-1.914,47.786 -2.695,47.718 -3.469,47.592C-4.187,47.468 -4.887,47.238 -5.539,46.908C-6.186,46.58 -6.774,46.151 -7.283,45.636C-7.803,45.128 -8.234,44.539 -8.561,43.891C-8.892,43.24 -9.119,42.54 -9.238,41.82C-9.367,41.045 -9.438,40.261 -9.447,39.476C-9.455,39.212 -9.466,38.334 -9.466,38.334L-9.466,9.459C-9.466,9.459 -9.455,8.595 -9.447,8.341C-9.438,7.556 -9.369,6.774 -9.24,6C-9.121,5.278 -8.892,4.577 -8.562,3.923C-8.235,3.276 -7.807,2.686 -7.292,2.175C-6.777,1.661 -6.187,1.23 -5.539,0.898C-4.888,0.568 -4.191,0.339 -3.472,0.218C-2.697,0.09 -1.913,0.023 -1.128,0.012L0,-0.003L128.458,-0.003L129.599,0.013C130.377,0.023 131.154,0.09 131.923,0.216C132.648,0.339 133.353,0.571 134.011,0.902C135.308,1.57 136.363,2.627 137.03,3.926C137.355,4.576 137.581,5.27 137.698,5.988C137.828,6.768 137.901,7.556 137.916,8.346C137.919,8.701 137.919,9.08 137.919,9.459C137.93,9.928 137.93,10.374 137.93,10.824L137.93,36.985C137.93,37.438 137.93,37.881 137.919,38.328C137.919,38.735 137.919,39.107 137.915,39.49C137.9,40.267 137.828,41.041 137.7,41.807C137.583,42.534 137.356,43.238 137.025,43.894C136.696,44.536 136.269,45.12 135.756,45.627C135.246,46.144 134.655,46.576 134.007,46.905C133.352,47.238 132.647,47.469 131.923,47.592C131.149,47.719 130.368,47.787 129.585,47.796C129.22,47.804 128.835,47.81 128.464,47.81L127.109,47.813L0,47.81Z" style="fill-rule:nonzero;"/>
            </g>
            <g transform="matrix(1,0,0,1,777.7985,4010.8518)">
                <path d="M0,-4.701C0.027,-6.822 1.139,-8.781 2.946,-9.891C1.801,-11.526 -0.048,-12.526 -2.043,-12.589C-4.142,-12.808 -6.178,-11.333 -7.247,-11.333C-8.338,-11.333 -9.983,-12.567 -11.757,-12.53C-14.091,-12.455 -16.212,-11.161 -17.349,-9.121C-19.765,-4.935 -17.962,1.216 -15.646,4.6C-14.488,6.256 -13.134,8.107 -11.361,8.041C-9.629,7.969 -8.981,6.935 -6.888,6.935C-4.815,6.935 -4.207,8.041 -2.4,7.999C-0.539,7.969 0.633,6.336 1.75,4.663C2.584,3.483 3.225,2.178 3.65,0.797C1.439,-0.138 0.002,-2.302 0,-4.701" style="fill:white;fill-rule:nonzero;"/>
            </g>
            <g transform="matrix(0.658647,-0.752452,-0.752452,-0.658647,774.850914,3994.632847)">
                <path d="M-1.365,-0.575C0.219,-0.536 1.726,0.119 2.835,1.251C1.693,2.31 0.193,2.899 -1.365,2.901C-2.903,2.904 -4.38,2.296 -5.469,1.21C-4.448,0.018 -2.934,-0.641 -1.365,-0.575" style="fill:white;fill-rule:nonzero;"/>
            </g>
            <g transform="matrix(1,0,0,1,794.4098,4009.5031)">
                <path d="M0,3.26L4.69,3.26L2.379,-3.55L2.314,-3.55L0,3.26ZM5.304,5.196L-0.612,5.196L-2.033,9.391L-4.54,9.391L1.065,-6.131L3.669,-6.131L9.273,9.391L6.725,9.391L5.304,5.196Z" style="fill:white;fill-rule:nonzero;"/>
            </g>
            <g transform="matrix(1,0,0,1,813.3971,4016.8138)">
                <path d="M0,-3.578C0,-5.868 -1.184,-7.375 -2.99,-7.375C-4.765,-7.375 -5.958,-5.837 -5.958,-3.578C-5.958,-1.297 -4.765,0.23 -2.99,0.23C-1.184,0.23 0,-1.265 0,-3.578M2.389,-3.578C2.389,-0.059 0.506,2.199 -2.335,2.199C-3.803,2.276 -5.187,1.507 -5.894,0.219L-5.949,0.219L-5.949,5.824L-8.271,5.824L-8.271,-9.237L-6.022,-9.237L-6.022,-7.354L-5.98,-7.354C-5.239,-8.634 -3.856,-9.402 -2.377,-9.355C0.495,-9.355 2.389,-7.084 2.389,-3.578" style="fill:white;fill-rule:nonzero;"/>
            </g>
            <g transform="matrix(1,0,0,1,825.8532,4016.8138)">
                <path d="M0,-3.578C0,-5.868 -1.183,-7.375 -2.99,-7.375C-4.766,-7.375 -5.959,-5.837 -5.959,-3.578C-5.959,-1.297 -4.766,0.23 -2.99,0.23C-1.183,0.23 0,-1.265 0,-3.578M2.388,-3.578C2.388,-0.059 0.506,2.199 -2.334,2.199C-3.804,2.276 -5.186,1.507 -5.896,0.219L-5.949,0.219L-5.949,5.824L-8.271,5.824L-8.271,-9.237L-6.023,-9.237L-6.023,-7.354L-5.981,-7.354C-5.24,-8.634 -3.855,-9.402 -2.378,-9.355C0.494,-9.355 2.388,-7.084 2.388,-3.578" style="fill:white;fill-rule:nonzero;"/>
            </g>
            <g transform="matrix(1,0,0,1,836.4743,4007.6968)">
                <path d="M0,6.873C0.172,8.412 1.667,9.423 3.71,9.423C5.668,9.423 7.077,8.412 7.077,7.023C7.077,5.819 6.228,5.099 4.216,4.603L2.204,4.119C-0.647,3.43 -1.969,2.098 -1.969,-0.066C-1.969,-2.744 0.365,-4.583 3.679,-4.583C6.959,-4.583 9.207,-2.744 9.283,-0.066L6.938,-0.066C6.799,-1.614 5.517,-2.55 3.646,-2.55C1.774,-2.55 0.493,-1.604 0.493,-0.227C0.493,0.871 1.312,1.516 3.313,2.011L5.023,2.431C8.208,3.184 9.531,4.463 9.531,6.733C9.531,9.638 7.217,11.456 3.539,11.456C0.096,11.456 -2.229,9.68 -2.378,6.873L0,6.873Z" style="fill:white;fill-rule:nonzero;"/>
            </g>
            <g transform="matrix(1,0,0,1,851.0192,4018.9669)">
                <path d="M0,-14.068L0,-11.389L2.151,-11.389L2.151,-9.549L0,-9.549L0,-3.311C0,-2.342 0.431,-1.889 1.377,-1.889C1.631,-1.894 1.886,-1.913 2.141,-1.944L2.141,-0.116C1.715,-0.035 1.282,0 0.85,-0.008C-1.441,-0.008 -2.334,-0.869 -2.334,-3.062L-2.334,-9.549L-3.98,-9.549L-3.98,-11.389L-2.334,-11.389L-2.334,-14.068L0,-14.068Z" style="fill:white;fill-rule:nonzero;"/>
            </g>
            <g transform="matrix(1,0,0,1,862.7868,4013.2378)">
                <path d="M0,-0.002C0,-2.443 -1.12,-3.886 -3.002,-3.886C-4.885,-3.886 -6.003,-2.434 -6.003,-0.002C-6.003,2.452 -4.885,3.882 -3.002,3.882C-1.12,3.882 0,2.452 0,-0.002M-8.37,-0.002C-8.37,-3.563 -6.271,-5.8 -3.002,-5.8C0.278,-5.8 2.366,-3.563 2.366,-0.002C2.366,3.569 0.291,5.798 -3.002,5.798C-6.293,5.798 -8.37,3.569 -8.37,-0.002" style="fill:white;fill-rule:nonzero;"/>
            </g>
            <g transform="matrix(1,0,0,1,867.068,4018.7256)">
                <path d="M0,-11.148L2.216,-11.148L2.216,-9.222L2.271,-9.222C2.578,-10.461 3.715,-11.316 4.991,-11.267C5.26,-11.267 5.526,-11.239 5.788,-11.18L5.788,-9.007C5.449,-9.11 5.097,-9.158 4.744,-9.148C3.452,-9.2 2.362,-8.195 2.311,-6.903C2.305,-6.783 2.31,-6.664 2.323,-6.544L2.323,0.168L0,0.168L0,-11.148Z" style="fill:white;fill-rule:nonzero;"/>
            </g>
            <g transform="matrix(1,0,0,1,875.7145,4014.2808)">
                <path d="M0,-2.088L5.657,-2.088C5.74,-3.588 4.592,-4.873 3.091,-4.956C3.021,-4.961 2.95,-4.962 2.879,-4.961C1.297,-4.97 0.008,-3.694 0,-2.112L0,-2.088ZM7.852,1.289C7.539,3.345 5.538,4.755 2.979,4.755C-0.312,4.755 -2.357,2.548 -2.357,-0.99C-2.357,-4.541 -0.303,-6.843 2.879,-6.843C6.012,-6.843 7.981,-4.692 7.981,-1.26L7.981,-0.464L-0.013,-0.464L-0.013,-0.323C-0.156,1.298 1.042,2.728 2.664,2.873C2.786,2.884 2.91,2.887 3.032,2.882C4.16,2.987 5.223,2.34 5.646,1.289L7.852,1.289Z" style="fill:white;fill-rule:nonzero;"/>
            </g>
            <g transform="matrix(1,0,0,1,792.5846,3992.6132)">
                <path d="M0,5.479L1.404,5.479C2.697,5.556 3.809,4.571 3.886,3.278C3.896,3.118 3.888,2.956 3.865,2.796C4.041,1.509 3.143,0.324 1.854,0.147C1.706,0.127 1.555,0.121 1.404,0.129L0,0.129L0,5.479ZM1.534,-0.925C3.352,-1.055 4.931,0.313 5.063,2.13C5.077,2.347 5.071,2.565 5.045,2.781C5.045,5.164 3.757,6.534 1.534,6.534L-1.16,6.534L-1.16,-0.925L1.534,-0.925Z" style="fill:white;fill-rule:nonzero;"/>
            </g>
            <g transform="matrix(1,0,0,1,803.1032,3996.3375)">
                <path d="M0,-0.008C0,-1.228 -0.548,-1.942 -1.509,-1.942C-2.474,-1.942 -3.019,-1.228 -3.019,-0.008C-3.019,1.221 -2.474,1.93 -1.509,1.93C-0.548,1.93 0,1.218 0,-0.008M-4.166,-0.008C-4.306,-1.474 -3.231,-2.776 -1.764,-2.916C-0.299,-3.056 1.003,-1.982 1.144,-0.515C1.159,-0.346 1.159,-0.176 1.144,-0.008C1.286,1.459 0.213,2.763 -1.252,2.904C-2.719,3.048 -4.023,1.975 -4.166,0.51C-4.183,0.338 -4.183,0.164 -4.166,-0.008" style="fill:white;fill-rule:nonzero;"/>
            </g>
            <g transform="matrix(1,0,0,1,811.3024,3993.5179)">
                <path d="M0,5.629L-1.152,5.629L-2.315,1.483L-2.403,1.483L-3.562,5.629L-4.703,5.629L-6.254,0L-5.127,0L-4.12,4.295L-4.037,4.295L-2.88,0L-1.813,0L-0.658,4.295L-0.568,4.295L0.434,0L1.546,0L0,5.629Z" style="fill:white;fill-rule:nonzero;"/>
            </g>
            <g transform="matrix(1,0,0,1,814.153,3998.962)">
                <path d="M0,-5.444L1.068,-5.444L1.068,-4.549L1.152,-4.549C1.439,-5.209 2.114,-5.611 2.832,-5.552C3.84,-5.629 4.719,-4.873 4.795,-3.864C4.806,-3.729 4.799,-3.593 4.779,-3.459L4.779,0.185L3.669,0.185L3.669,-3.18C3.669,-4.086 3.275,-4.535 2.454,-4.535C1.742,-4.567 1.138,-4.017 1.105,-3.305C1.101,-3.239 1.104,-3.173 1.112,-3.109L1.112,0.185L0,0.185L0,-5.444Z" style="fill:white;fill-rule:nonzero;"/>
            </g>
            <g transform="matrix(1,0,0,1,9.36,3850.908)">
                <rect x="811.343" y="140.413" width="1.111" height="7.826" style="fill:white;"/>
            </g>
            <g transform="matrix(1,0,0,1,827.5241,3996.3375)">
                <path d="M0,-0.008C0,-1.228 -0.547,-1.942 -1.511,-1.942C-2.476,-1.942 -3.019,-1.228 -3.019,-0.008C-3.019,1.221 -2.476,1.93 -1.511,1.93C-0.547,1.93 0,1.218 0,-0.008M-4.166,-0.008C-4.307,-1.474 -3.23,-2.776 -1.766,-2.916C-0.3,-3.056 1.004,-1.982 1.144,-0.515C1.159,-0.346 1.159,-0.176 1.144,-0.008C1.286,1.459 0.214,2.763 -1.253,2.904C-2.72,3.048 -4.023,1.975 -4.166,0.509C-4.183,0.338 -4.183,0.164 -4.166,-0.008" style="fill:white;fill-rule:nonzero;"/>
            </g>
            <g transform="matrix(1,0,0,1,833.4547,3995.6727)">
                <path d="M0,1.401L0,0.93L-1.375,1.019C-2.149,1.071 -2.5,1.335 -2.5,1.831C-2.5,2.337 -2.062,2.631 -1.458,2.631C-0.728,2.706 -0.078,2.174 -0.003,1.445C-0.002,1.43 -0.001,1.417 0,1.401M-3.618,1.882C-3.618,0.87 -2.864,0.285 -1.524,0.203L0,0.114L0,-0.371C0,-0.966 -0.393,-1.301 -1.152,-1.301C-1.771,-1.301 -2.201,-1.075 -2.325,-0.676L-3.4,-0.676C-3.287,-1.643 -2.378,-2.263 -1.1,-2.263C0.31,-2.263 1.105,-1.561 1.105,-0.371L1.105,3.474L0.036,3.474L0.036,2.683L-0.051,2.683C-0.414,3.26 -1.061,3.598 -1.742,3.566C-2.676,3.664 -3.512,2.986 -3.609,2.051C-3.614,1.996 -3.618,1.938 -3.618,1.882" style="fill:white;fill-rule:nonzero;"/>
            </g>
            <g transform="matrix(1,0,0,1,837.1676,3994.2575)">
                <path d="M0,2.072C0,3.265 0.563,3.985 1.504,3.985C2.441,3.985 3.02,3.256 3.02,2.078C3.02,0.905 2.436,0.165 1.504,0.165C0.569,0.165 0,0.888 0,2.072M-1.147,2.072C-1.147,0.294 -0.232,-0.833 1.189,-0.833C1.908,-0.866 2.58,-0.482 2.916,0.155L3,0.155L3,-2.937L4.109,-2.937L4.109,4.889L3.045,4.889L3.045,4L2.956,4C2.596,4.631 1.916,5.009 1.189,4.981C-0.242,4.981 -1.147,3.855 -1.147,2.072" style="fill:white;fill-rule:nonzero;"/>
            </g>
            <g transform="matrix(1,0,0,1,850.0387,3996.3375)">
                <path d="M0,-0.008C0,-1.228 -0.548,-1.942 -1.509,-1.942C-2.475,-1.942 -3.019,-1.228 -3.019,-0.008C-3.019,1.221 -2.475,1.93 -1.509,1.93C-0.548,1.93 0,1.218 0,-0.008M-4.166,-0.008C-4.305,-1.474 -3.23,-2.776 -1.765,-2.916C-0.299,-3.056 1.003,-1.982 1.145,-0.515C1.159,-0.346 1.159,-0.176 1.145,-0.008C1.286,1.459 0.213,2.763 -1.253,2.904C-2.719,3.048 -4.023,1.975 -4.166,0.51C-4.182,0.338 -4.182,0.164 -4.166,-0.008" style="fill:white;fill-rule:nonzero;"/>
            </g>
            <g transform="matrix(1,0,0,1,852.6725,3998.962)">
                <path d="M0,-5.444L1.069,-5.444L1.069,-4.549L1.152,-4.549C1.442,-5.209 2.115,-5.611 2.832,-5.552C3.84,-5.629 4.719,-4.873 4.795,-3.864C4.805,-3.729 4.8,-3.593 4.781,-3.459L4.781,0.185L3.669,0.185L3.669,-3.18C3.669,-4.086 3.276,-4.535 2.454,-4.535C1.741,-4.567 1.138,-4.017 1.104,-3.305C1.102,-3.239 1.104,-3.173 1.11,-3.109L1.11,0.185L0,0.185L0,-5.444Z" style="fill:white;fill-rule:nonzero;"/>
            </g>
            <g transform="matrix(1,0,0,1,863.7301,3999.1776)">
                <path d="M0,-7.061L0,-5.634L1.219,-5.634L1.219,-4.698L0,-4.698L0,-1.804C0,-1.214 0.242,-0.956 0.795,-0.956C0.937,-0.957 1.078,-0.965 1.219,-0.982L1.219,-0.056C1.021,-0.021 0.817,-0.001 0.614,0C-0.62,0 -1.113,-0.434 -1.113,-1.52L-1.113,-4.698L-2.007,-4.698L-2.007,-5.634L-1.113,-5.634L-1.113,-7.061L0,-7.061Z" style="fill:white;fill-rule:nonzero;"/>
            </g>
            <g transform="matrix(1,0,0,1,866.4664,3999.1467)">
                <path d="M0,-7.826L1.101,-7.826L1.101,-4.724L1.188,-4.724C1.49,-5.388 2.178,-5.791 2.905,-5.732C3.928,-5.788 4.802,-5.005 4.858,-3.981C4.864,-3.866 4.859,-3.75 4.844,-3.634L4.844,0L3.732,0L3.732,-3.359C3.732,-4.259 3.313,-4.715 2.529,-4.715C1.803,-4.774 1.17,-4.235 1.109,-3.512C1.104,-3.437 1.104,-3.362 1.111,-3.287L1.111,0L0,0L0,-7.826Z" style="fill:white;fill-rule:nonzero;"/>
            </g>
            <g transform="matrix(1,0,0,1,873.8795,3996.9709)">
                <path d="M0,-1.158L2.844,-1.158C2.897,-1.906 2.337,-2.556 1.589,-2.613C1.545,-2.615 1.501,-2.617 1.457,-2.616C0.663,-2.626 0.011,-1.99 0,-1.194L0,-1.158M3.907,0.656C3.596,1.718 2.568,2.404 1.469,2.284C0.058,2.321 -1.118,1.208 -1.153,-0.204C-1.158,-0.344 -1.15,-0.483 -1.132,-0.621C-1.322,-2.042 -0.325,-3.347 1.097,-3.539C1.218,-3.554 1.341,-3.562 1.464,-3.561C3.029,-3.561 3.975,-2.491 3.975,-0.724L3.975,-0.337L0,-0.337L0,-0.274C-0.068,0.545 0.539,1.264 1.358,1.333C1.405,1.337 1.451,1.339 1.499,1.338C2.043,1.405 2.572,1.134 2.838,0.656L3.907,0.656Z" style="fill:white;fill-rule:nonzero;"/>
            </g>
        </g>
    </g>
</svg>
