<?xml version="1.0" encoding="UTF-8" standalone="no"?>
<!DOCTYPE svg PUBLIC "-//W3C//DTD SVG 1.1//EN" "http://www.w3.org/Graphics/SVG/1.1/DTD/svg11.dtd">
<svg width="100%" height="100%" viewBox="0 0 5523 2079" version="1.1" xmlns="http://www.w3.org/2000/svg" xmlns:xlink="http://www.w3.org/1999/xlink" xml:space="preserve" xmlns:serif="http://www.serif.com/" style="fill-rule:evenodd;clip-rule:evenodd;stroke-linecap:round;stroke-linejoin:round;stroke-miterlimit:10;">
    <g transform="matrix(1,0,0,1,-594.196327,-10792.985833)">
        <g transform="matrix(8.333333,0,0,8.333333,0,0)">
            <g transform="matrix(1,0,0,1,565.1387,1303.8147)">
                <path d="M0,235.613L121.064,235.613C131.113,235.613 138.375,225.998 135.625,216.332L102.787,86.694C100.937,80.188 94.992,75.697 88.227,75.697L-28.854,75.697C-39.721,75.697 -47.048,64.588 -42.77,54.601L-26.849,17.419C-23.317,9.172 -29.368,0 -38.338,0L-82.16,0" style="fill:rgb(39,51,118);fill-rule:nonzero;stroke:rgb(210,29,44);stroke-width:3px;"/>
            </g>
        </g>
        <g transform="matrix(8.333333,0,0,8.333333,0,0)">
            <g transform="matrix(1,0,0,1,683.7207,1296.6583)">
                <path d="M0,149.389L29.949,149.389C42.696,149.389 51.753,136.983 47.869,124.843L15.155,22.566C10.855,9.121 -1.641,0 -15.756,0L-104.447,0" style="fill:rgb(39,51,118);fill-rule:nonzero;stroke:rgb(210,29,44);stroke-width:3px;"/>
            </g>
        </g>
        <g transform="matrix(8.333333,0,0,8.333333,0,0)">
            <g transform="matrix(0,-1,-1,0,369.1217,1534.5274)">
                <path d="M-5.038,-5.038C-2.255,-5.038 0.002,-2.782 0.002,0C0.002,2.781 -2.255,5.038 -5.038,5.038C-7.821,5.038 -10.077,2.781 -10.077,0C-10.077,-2.782 -7.821,-5.038 -5.038,-5.038" style="fill:white;fill-rule:nonzero;"/>
            </g>
        </g>
        <g transform="matrix(8.333333,0,0,8.333333,0,0)">
            <g transform="matrix(0,-1,-1,0,391.8697,1534.5264)">
                <path d="M-5.038,-5.038C-2.255,-5.038 0.001,-2.783 0.001,0.001C0.001,2.782 -2.255,5.038 -5.038,5.038C-7.822,5.038 -10.078,2.782 -10.078,0.001C-10.078,-2.783 -7.822,-5.038 -5.038,-5.038" style="fill:white;fill-rule:nonzero;"/>
            </g>
        </g>
        <g transform="matrix(8.333333,0,0,8.333333,0,0)">
            <g transform="matrix(0,-1,-1,0,414.7047,1534.5264)">
                <path d="M-5.038,-5.038C-2.255,-5.038 0.001,-2.783 0.001,-0C0.001,2.782 -2.255,5.038 -5.038,5.038C-7.822,5.038 -10.078,2.782 -10.078,-0C-10.078,-2.783 -7.822,-5.038 -5.038,-5.038" style="fill:white;fill-rule:nonzero;"/>
            </g>
        </g>
        <g transform="matrix(8.333333,0,0,8.333333,0,0)">
            <g transform="matrix(0,-1,-1,0,323.5396,1534.5274)">
                <path d="M-5.038,-5.038C-2.255,-5.038 0.002,-2.782 0.002,0.002C0.002,2.783 -2.255,5.038 -5.038,5.038C-7.821,5.038 -10.077,2.783 -10.077,0.002C-10.077,-2.782 -7.821,-5.038 -5.038,-5.038" style="fill:white;fill-rule:nonzero;"/>
            </g>
        </g>
        <g transform="matrix(8.333333,0,0,8.333333,0,0)">
            <g transform="matrix(0,-1,-1,0,346.2867,1534.5274)">
                <path d="M-5.038,-5.038C-2.255,-5.038 0.002,-2.782 0.002,0C0.002,2.781 -2.255,5.038 -5.038,5.038C-7.821,5.038 -10.077,2.781 -10.077,0C-10.077,-2.782 -7.821,-5.038 -5.038,-5.038" style="fill:white;fill-rule:nonzero;"/>
            </g>
        </g>
        <g transform="matrix(8.333333,0,0,8.333333,0,0)">
            <g transform="matrix(0,-1,-1,0,437.4517,1534.5264)">
                <path d="M-5.038,-5.038C-2.255,-5.038 0.001,-2.783 0.001,-0C0.001,2.782 -2.255,5.038 -5.038,5.038C-7.822,5.038 -10.078,2.782 -10.078,-0C-10.078,-2.783 -7.822,-5.038 -5.038,-5.038" style="fill:white;fill-rule:nonzero;"/>
            </g>
        </g>
        <g transform="matrix(8.333333,0,0,8.333333,0,0)">
            <g transform="matrix(0,-1,-1,0,460.2877,1534.5264)">
                <path d="M-5.038,-5.038C-2.255,-5.038 0.001,-2.783 0.001,0.001C0.001,2.782 -2.255,5.038 -5.038,5.038C-7.822,5.038 -10.078,2.782 -10.078,0.001C-10.078,-2.783 -7.822,-5.038 -5.038,-5.038" style="fill:white;fill-rule:nonzero;"/>
            </g>
        </g>
        <g transform="matrix(8.333333,0,0,8.333333,0,0)">
            <g transform="matrix(0,-1,-1,0,574.3151,1407.3599)">
                <path d="M-5.039,-5.037C-2.257,-5.037 0.001,-2.781 0.001,0.002C0.001,2.783 -2.257,5.039 -5.039,5.039C-7.824,5.039 -10.077,2.783 -10.077,0.002C-10.077,-2.781 -7.824,-5.037 -5.039,-5.037" style="fill:white;fill-rule:nonzero;"/>
            </g>
        </g>
        <g transform="matrix(8.333333,0,0,8.333333,0,0)">
            <g transform="matrix(0,-1,-1,0,597.0621,1407.3589)">
                <path d="M-5.04,-5.038C-2.258,-5.038 0,-2.782 0,0.001C0,2.784 -2.258,5.04 -5.04,5.04C-7.825,5.04 -10.078,2.784 -10.078,0.001C-10.078,-2.782 -7.825,-5.038 -5.04,-5.038" style="fill:white;fill-rule:nonzero;"/>
            </g>
        </g>
        <g transform="matrix(8.333333,0,0,8.333333,0,0)">
            <g transform="matrix(0,-1,-1,0,619.8971,1407.3599)">
                <path d="M-5.039,-5.037C-2.257,-5.037 0.001,-2.781 0.001,-0C0.001,2.783 -2.257,5.039 -5.039,5.039C-7.824,5.039 -10.077,2.783 -10.077,-0C-10.077,-2.781 -7.824,-5.037 -5.039,-5.037" style="fill:white;fill-rule:nonzero;"/>
            </g>
        </g>
        <g transform="matrix(8.333333,0,0,8.333333,0,0)">
            <g transform="matrix(1,0,0,1,238.7109,1304.4456)">
                <path d="M0,235.612L-121.064,235.612C-131.115,235.612 -138.374,225.998 -135.625,216.332L-102.789,86.696C-100.938,80.187 -94.993,75.699 -88.229,75.699L28.854,75.699C39.72,75.699 47.046,64.59 42.77,54.602L26.849,17.416C23.317,9.17 29.366,0 38.338,0L76.142,0" style="fill:rgb(39,51,118);fill-rule:nonzero;stroke:rgb(210,29,44);stroke-width:3px;"/>
            </g>
        </g>
        <g transform="matrix(8.333333,0,0,8.333333,0,0)">
            <g transform="matrix(0,-1,-1,0,175.712,1407.6094)">
                <path d="M-5.039,-5.038C-2.253,-5.038 0.001,-2.782 0.001,0C0.001,2.783 -2.253,5.039 -5.039,5.039C-7.819,5.039 -10.078,2.783 -10.078,0C-10.078,-2.782 -7.819,-5.038 -5.039,-5.038" style="fill:white;fill-rule:nonzero;"/>
            </g>
        </g>
        <g transform="matrix(8.333333,0,0,8.333333,0,0)">
            <g transform="matrix(0,-1,-1,0,198.4591,1407.6094)">
                <path d="M-5.039,-5.038C-2.253,-5.038 0.001,-2.782 0.001,0.002C0.001,2.783 -2.253,5.039 -5.039,5.039C-7.819,5.039 -10.078,2.783 -10.078,0.002C-10.078,-2.782 -7.819,-5.038 -5.039,-5.038" style="fill:white;fill-rule:nonzero;"/>
            </g>
        </g>
        <g transform="matrix(8.333333,0,0,8.333333,0,0)">
            <g transform="matrix(0,-1,-1,0,221.2945,1407.6089)">
                <path d="M-5.04,-5.038C-2.254,-5.038 0,-2.782 0,0.001C0,2.784 -2.254,5.04 -5.04,5.04C-7.82,5.04 -10.078,2.784 -10.078,0.001C-10.078,-2.782 -7.82,-5.038 -5.04,-5.038" style="fill:white;fill-rule:nonzero;"/>
            </g>
        </g>
        <g transform="matrix(8.333333,0,0,8.333333,0,0)">
            <g transform="matrix(1,0,0,1,120.3076,1296.6583)">
                <path d="M0,149.389L-28.678,149.389C-41.423,149.389 -50.479,136.983 -46.596,124.843L-14.534,24.606C-9.846,9.948 3.779,0 19.169,0L108.189,0" style="fill:rgb(39,51,118);fill-rule:nonzero;stroke:rgb(210,29,44);stroke-width:3px;"/>
            </g>
        </g>
    </g>
</svg>
