<svg width="800" height="800" viewBox="0 0 800 800" fill="none" xmlns="http://www.w3.org/2000/svg">
<g clip-path="url(#clip0_57_1065)">
<path d="M64.0947 418.193C64.0947 598.934 210.628 745.467 391.377 745.467C572.142 745.467 718.667 598.934 718.667 418.193C718.667 237.428 572.142 90.9106 391.377 90.9106C210.628 90.9106 64.0947 237.428 64.0947 418.193Z" stroke="#5E6473" stroke-width="83.3333" stroke-miterlimit="2" stroke-linejoin="round"/>
<path d="M64.0947 418.193C64.0947 598.934 210.628 745.467 391.377 745.467C572.142 745.467 718.667 598.934 718.667 418.193C718.667 237.428 572.142 90.9106 391.377 90.9106C210.628 90.9106 64.0947 237.428 64.0947 418.193Z" fill="white"/>
<path d="M356.393 291.218C356.393 291.218 387.297 284.232 394.193 290.018C401.079 295.819 414.567 397.509 414.567 397.509C414.567 397.509 395.724 356.678 390.012 336.325C384.037 314.967 356.393 291.218 356.393 291.218Z" fill="#273376"/>
<path d="M414.557 397.498C413.793 396.686 336.361 313.098 335.864 305.075C335.344 297.003 354.3 288.089 379.656 287.829C379.656 287.829 360.992 301.496 361.772 306.241C363.167 314.73 375.684 321.91 385.505 344.019C397.052 370.014 414.313 397.12 414.557 397.498Z" fill="#273376"/>
<path d="M290.117 364.319C290.117 364.319 306.165 357.004 311.769 357.47C317.365 357.935 357.508 366.967 362.237 370.948C366.974 374.928 290.117 364.319 290.117 364.319ZM414.534 397.486C414.093 397.147 408.875 393.12 400.906 387.311C400.898 387.295 400.898 387.295 400.882 387.295C376.937 369.836 328.132 336.409 309.002 338.821C300.789 339.853 292.214 343.069 284.584 347.207C268.284 356.059 256.288 369.088 261.269 374.014C268.607 381.234 364.255 370.987 414.558 397.51C414.542 397.502 414.542 397.494 414.534 397.486Z" fill="#273376"/>
<path d="M414.558 397.508C364.255 370.986 268.6 381.232 261.27 374.012C256.288 369.086 268.269 356.057 284.577 347.206C284.364 347.419 274.559 357.106 283.253 359.163C291.261 361.054 351.597 355.135 400.883 387.293C400.899 387.293 400.899 387.293 400.906 387.309C405.557 390.344 410.12 393.725 414.534 397.493C414.534 397.493 414.542 397.501 414.558 397.508Z" fill="#273376"/>
<path d="M414.095 397.46C414.095 397.46 438.245 349.703 434.888 323.582C434.888 323.582 429 329.998 426.99 331.102C426.99 331.102 422.001 323.645 421.638 322.668C421.275 321.691 422.001 323.645 422.001 323.645C422.001 323.645 412.022 382.185 414.095 397.46Z" fill="#273376"/>
<path d="M414.565 397.514C414.565 397.514 434.932 351.129 483.769 351.365C483.769 351.365 475.635 358.561 475.564 361.446C475.564 361.446 484.281 363.874 486.874 364.158C486.874 364.158 443.492 372.355 420.028 398.121L414.565 397.514Z" fill="#273376"/>
<path d="M457.071 411.434H230.946V628.534H457.071V411.434Z" fill="#D86713"/>
<path d="M570.13 411.434H344.005V628.534H570.13V411.434Z" fill="#F1A34F"/>
<path d="M344.005 411.436H570.729V480.466L344.005 628.536V411.436Z" fill="#EA913D"/>
<path d="M344.005 389.129H226.169V426.766H344.005V389.129Z" fill="#F4A762"/>
<path d="M574.733 389.129H344.005V426.766H574.733V389.129Z" fill="#FFB871"/>
<path d="M471.473 389.129H453.998V628.843H471.473V389.129Z" fill="#273376"/>
<path d="M296.224 389.129H278.734V628.331H296.224V389.129Z" fill="#273376"/>
<path d="M674.439 545.067C674.439 545.067 711.09 557.788 723.165 556.18C723.165 556.18 723.969 550.001 713.352 544.239C702.727 538.477 693.568 519.261 687.799 520.711C682.037 522.17 674.407 527.38 674.407 527.38L674.439 545.067Z" fill="#00592D"/>
<path d="M726.664 488.175C726.664 488.175 764.947 481.885 774.799 474.729C774.799 474.729 772.561 468.904 760.478 468.904C748.395 468.904 731.181 456.371 726.806 460.399C722.432 464.427 718.207 472.648 718.207 472.648L726.664 488.175Z" fill="#00592D"/>
<path d="M674.461 545.089C664.033 544.766 654.228 544.316 645.022 543.772C505.267 535.52 501.192 504.442 501.192 504.442C477.94 433.228 571.334 362.503 571.334 362.503C571.334 362.503 627.989 354.55 625.751 387.852C623.496 421.153 545.11 486.581 545.11 486.581C571.208 489.024 613.644 503.701 642.744 514.759C661.298 521.821 674.43 527.41 674.43 527.41C674.43 527.41 676.905 531.634 676.542 536.387C676.148 541.534 674.461 545.089 674.461 545.089Z" fill="#046A38"/>
<path d="M645.02 543.774C505.273 535.514 501.19 504.443 501.19 504.443C477.946 433.23 571.332 362.505 571.332 362.505C571.332 362.505 627.995 354.544 625.757 387.853C623.502 421.155 545.108 486.583 545.108 486.583C571.213 489.026 613.65 503.702 642.742 514.761C646.242 523.825 648.543 534.67 645.02 543.774Z" fill="#A9000E"/>
<path d="M726.802 488.148C726.763 488.156 726.708 488.164 726.661 488.18C606.374 520.662 563.922 520.189 551.697 517.753C546.274 516.665 542.451 508.744 542.451 508.744C519.223 437.523 618.276 357.261 618.276 357.261C618.276 357.261 660.957 355.322 672.866 374.79C675.065 378.369 676.208 382.672 675.854 387.859C674.411 409.305 641.945 440.218 619.017 459.505C606.902 469.697 597.452 476.649 596.64 477.24L596.601 477.271C636.617 452.577 718.203 472.645 718.203 472.645C718.203 472.645 722.94 475.979 724.438 478.753C726.802 483.12 726.802 488.148 726.802 488.148Z" fill="#D21D2C"/>
<path d="M768.607 114.944C767.117 120.138 757.604 152.47 749.399 177.401C744.386 192.637 739.814 205.145 737.875 206.816C736.37 208.132 730.553 211.309 722.545 215.36C711.352 220.909 695.762 227.869 681.141 233.063C671.722 236.5 662.642 239.14 655.501 240.11C652.782 240.638 650.401 240.732 648.281 240.638C635.339 239.849 634.629 225.575 636.214 213.863C636.75 210.513 637.364 207.344 637.979 204.877C638.862 201.267 639.658 198.887 639.658 198.887C639.658 198.887 641.676 198.453 645.12 197.736C651.631 196.333 663.265 193.953 676.293 191.84C688.897 189.815 702.808 187.963 714.529 187.442C714.529 187.442 720.866 175.903 728.882 161.542C738.569 144.099 750.636 122.519 756.358 113.005C756.981 112.036 757.336 110.98 757.422 109.923C760.591 112.39 764.382 114.235 768.607 114.944Z" fill="#FFB27D"/>
<path d="M574.552 118.816C573.504 121.197 572.361 123.483 571.297 125.776C571.297 125.776 573.851 131.68 577.287 140.318C577.374 140.571 577.469 140.925 577.642 141.193C578.265 142.604 578.785 144.102 579.4 145.686C582.923 154.853 586.974 166.037 589.977 176.512C590.064 176.867 590.229 177.214 590.332 177.568C592.263 184.528 593.847 191.22 594.383 196.596C594.73 199.504 594.73 201.971 594.462 204.083L562.934 226.728C562.934 226.728 562.753 226.106 562.398 224.876C559.758 216.064 548.219 177.135 544.609 150.092C543.639 143.574 543.198 137.843 543.466 133.264C543.466 133.264 540.904 120.842 554.477 92.8375C561.437 78.4766 572.621 60.1589 590.497 37.254C590.497 37.254 592.436 33.9987 594.194 30.7356C596.929 33.4706 601.445 36.3712 604.346 38.4914C602.194 39.453 600.634 41.3053 600.279 42.5349C596.929 55.3982 588.74 84.6403 577.997 110.627C577.997 110.627 577.997 110.714 577.91 110.808C577.815 111.155 577.642 111.51 577.469 111.865C577.374 112.125 577.201 112.393 577.114 112.739C576.491 114.332 575.79 115.916 575.088 117.5C574.907 117.934 574.734 118.375 574.552 118.816Z" fill="#FFB27D"/>
<path d="M616.186 289.194C616.186 289.194 573.545 244.953 537.067 218.036C534.576 211.297 533.213 202.327 533.213 202.327C531.171 206.063 531.487 210.879 532.164 214.497C522.249 207.521 512.98 202.083 505.382 199.498C502.836 184.648 517.118 169.057 517.118 169.057C504.846 174.023 499.872 190.386 498.248 197.89C496.924 197.779 495.703 197.811 494.568 198.008C494.568 198.008 493.346 147.887 569.888 147.887C599.666 147.887 595.401 96.1415 637.798 99.8539C637.798 99.8539 684.089 108.902 675.451 149.274C666.804 189.645 681.007 198.694 685.949 207.75C690.883 216.798 669.886 280.146 616.186 289.194Z" fill="#212D3A"/>
<path d="M653.857 206.893L609.214 224.573L604.469 204.789C604.004 198.822 604.618 192.178 605.611 186.069C607.259 175.988 609.939 167.381 610.475 165.702C610.538 165.505 610.577 165.403 610.577 165.403L611.72 165.371L615.432 165.277L640.529 164.63C639.528 168.366 639.007 171.842 638.873 175.066C637.943 196.6 653.857 206.893 653.857 206.893Z" fill="#FFB27D"/>
<path d="M585.299 194.921C585.299 194.921 525.31 228.12 571.34 362.507L667.248 367.733C667.248 367.733 626.27 310.723 636.067 291.128C645.872 271.526 665.466 210.062 665.466 210.062L585.299 194.921Z" fill="#E5B0B4"/>
<path d="M542.501 130.993C540.015 149.431 557.002 210.544 559.281 216.345C561.56 221.938 560.11 224.838 560.11 224.838C549.13 242.24 550.58 268.55 552.445 276.836C554.309 285.123 553.48 325.934 559.902 346.029C566.532 365.916 584.969 370.474 603.199 366.745C612.522 364.88 624.123 366.952 634.274 370.267C643.803 373.167 652.297 376.896 656.855 379.382C665.763 383.939 676.535 384.354 678.814 379.589C679.021 379.175 679.228 378.553 679.228 377.932C679.643 371.51 640.489 314.333 640.696 305.425C641.11 292.581 655.197 244.519 656.233 241.411C656.233 241.411 656.647 240.997 657.062 240.997C658.926 239.961 664.52 239.34 664.52 239.34C680.471 237.268 733.091 210.13 737.027 208.058C741.17 205.779 749.456 177.605 749.456 177.605C744.692 161.654 728.74 161.654 728.74 161.654C728.74 161.654 726.254 164.347 719.832 176.362C714.446 186.513 713.41 186.72 713.41 186.72C696.008 187.963 645.668 195.835 645.668 195.835C645.461 193.971 643.182 194.385 643.182 194.385C604.235 208.472 604.857 191.278 604.857 191.278C602.992 189.621 594.706 190.242 594.706 190.242C593.67 186.72 572.539 126.85 572.125 125.814C571.711 124.571 577.926 110.691 577.926 110.691C577.097 110.484 573.161 104.891 567.36 99.7118C561.353 94.3256 554.516 92.8754 554.516 92.8754C543.329 113.177 542.501 130.993 542.501 130.993Z" fill="url(#paint0_linear_57_1065)"/>
<path d="M679.226 377.983C679.187 378.566 679.061 379.094 678.824 379.575C676.625 384.446 665.827 384.028 656.96 379.378C652.278 376.926 643.875 373.096 634.386 370.172C628.167 354.731 619.607 331.29 616.336 312.223C611.347 283.171 650.559 246.661 656.29 241.514C655.155 244.486 641.038 292.597 640.707 305.358C640.478 314.257 679.691 371.488 679.226 377.983Z" fill="#FFA100"/>
<path d="M638.87 175.06C638.87 175.06 617.975 185.693 605.608 186.072C607.256 175.983 609.936 167.376 610.472 165.697C610.897 165.571 611.315 165.452 611.725 165.374C612.6 165.192 613.459 165.113 614.318 165.177C614.688 165.192 615.059 165.232 615.429 165.271C625.81 166.477 638.87 175.06 638.87 175.06Z" fill="#ED975D"/>
<path d="M600.458 170.769C600.458 170.769 636.103 188.835 647.015 166.464C657.921 144.087 669.872 131.357 647.57 118.88C625.268 106.402 616.659 112.766 611.195 119.346C605.749 125.931 591.471 165.495 600.458 170.769Z" fill="#FFB27D"/>
<path d="M628.409 118.688C628.409 118.688 639.215 129.431 636.039 139.646C632.855 149.853 638.002 170.165 651.921 172.49C665.856 174.808 682.408 127.737 664.075 118.688C645.757 109.632 615.814 105.163 606.773 116.536C597.733 127.894 601.209 142.279 601.209 142.279C601.209 142.279 613.757 117.987 628.409 118.688Z" fill="#273549"/>
<path d="M614.201 163.375C614.201 163.375 612.735 165.787 606.374 163.264C606.374 163.264 601.038 161.152 602.141 158.338C602.141 158.338 608.092 158.023 614.201 163.375Z" fill="white"/>
<path d="M614.515 27.0166C613.822 27.1349 610.283 30.3744 610.417 30.1379C614.972 22.4136 617.179 15.5405 616.415 12.2616C616.107 10.9138 600.966 14.8784 598.475 21.7357C597.199 25.2669 591.618 35.6395 591.618 35.6395L600.162 39.9746C600.162 39.9746 603.559 38.1223 605.057 38.5401C606.539 38.9578 611.82 36.6169 613.467 34.1104C613.467 34.1104 617.101 26.5674 614.515 27.0166Z" fill="#FFB27D"/>
<path d="M770.139 80.8062C765.922 81.8703 756.038 97.2164 756.093 99.983C756.101 100.346 756.093 100.732 756.101 101.094C755.557 99.7308 754.966 98.2726 754.548 97.4608C752.98 94.4499 751.198 95.9711 751.198 95.9711C751.726 99.179 751.679 106.88 753.279 108.086C754.871 109.284 755.652 114.226 755.652 114.226L766.82 119.585C766.82 119.585 773.071 105.69 775.687 101.615C780.756 93.6538 774.355 79.7422 770.139 80.8062Z" fill="#FFB27D"/>
<path d="M458.924 164.022V161.965H225.366C221.653 161.965 218.643 164.983 218.643 168.696V248.855C218.643 252.568 221.653 255.586 225.366 255.586H300.347L335.965 280.809C336.612 281.274 337.353 281.502 338.054 281.502C339.985 281.487 341.688 279.942 341.711 277.877C341.711 277.506 341.648 277.12 341.522 276.734L334.704 255.586H458.924C462.636 255.586 465.655 252.568 465.655 248.855V168.696C465.655 164.983 462.636 161.965 458.924 161.965V164.022C460.209 164.022 461.367 164.55 462.219 165.393C463.062 166.252 463.59 167.411 463.59 168.696V248.855C463.59 250.14 463.062 251.299 462.219 252.15C461.367 253.001 460.209 253.521 458.924 253.521H331.867L339.552 277.364L339.638 277.877C339.638 278.302 339.465 278.681 339.166 278.972C338.866 279.256 338.456 279.429 338.054 279.429C337.77 279.421 337.471 279.343 337.156 279.13L301.009 253.521H225.366C224.081 253.521 222.93 253.001 222.071 252.15C221.228 251.299 220.7 250.14 220.7 248.855V168.696C220.7 167.411 221.228 166.252 222.071 165.393C222.93 164.55 224.081 164.022 225.366 164.022H458.924Z" fill="#1B4557"/>
<path d="M254.679 189.478L259.164 198.566C259.432 199.11 259.944 199.488 260.543 199.567L270.577 201.025C272.082 201.246 272.681 203.098 271.594 204.162L264.334 211.232C263.901 211.65 263.712 212.265 263.806 212.856L265.524 222.842C265.777 224.34 264.2 225.483 262.852 224.781L253.883 220.06C253.347 219.784 252.708 219.784 252.18 220.06L243.211 224.781C241.863 225.483 240.286 224.34 240.539 222.842L242.257 212.856C242.359 212.265 242.162 211.65 241.729 211.232L234.477 204.162C233.382 203.098 233.981 201.246 235.486 201.025L245.52 199.567C246.119 199.488 246.631 199.11 246.899 198.566L251.384 189.478C252.062 188.114 254.001 188.114 254.679 189.478Z" fill="#F58232"/>
<path d="M299.237 189.478L303.722 198.566C303.99 199.11 304.503 199.488 305.102 199.567L315.135 201.025C316.641 201.246 317.24 203.098 316.152 204.162L308.893 211.232C308.459 211.65 308.27 212.265 308.365 212.856L310.083 222.842C310.335 224.34 308.759 225.483 307.411 224.781L298.441 220.06C297.913 219.784 297.267 219.784 296.739 220.06L287.769 224.781C286.421 225.483 284.845 224.34 285.105 222.842L286.816 212.856C286.926 212.265 286.721 211.65 286.287 211.232L279.036 204.162C277.94 203.098 278.539 201.246 280.045 201.025L290.079 199.567C290.678 199.488 291.19 199.11 291.458 198.566L295.943 189.478C296.621 188.114 298.56 188.114 299.237 189.478Z" fill="#F58232"/>
<path d="M343.797 189.478L348.282 198.566C348.55 199.11 349.062 199.488 349.661 199.567L359.695 201.025C361.2 201.246 361.799 203.098 360.712 204.162L353.46 211.232C353.019 211.65 352.83 212.265 352.924 212.856L354.643 222.842C354.895 224.34 353.318 225.483 351.979 224.781L343.001 220.06C342.473 219.784 341.834 219.784 341.298 220.06L332.329 224.781C330.981 225.483 329.405 224.34 329.665 222.842L331.375 212.856C331.485 212.265 331.28 211.65 330.847 211.232L323.596 204.162C322.5 203.098 323.099 201.246 324.604 201.025L334.638 199.567C335.237 199.488 335.75 199.11 336.025 198.566L340.502 189.478C341.18 188.114 343.127 188.114 343.797 189.478Z" fill="#F58232"/>
<path d="M388.356 189.478L392.841 198.566C393.117 199.11 393.629 199.488 394.228 199.567L404.262 201.025C405.759 201.246 406.358 203.098 405.271 204.162L398.019 211.232C397.578 211.65 397.389 212.265 397.483 212.856L399.202 222.842C399.454 224.34 397.885 225.483 396.538 224.781L387.56 220.06C387.032 219.784 386.393 219.784 385.858 220.06L376.888 224.781C375.54 225.483 373.972 224.34 374.224 222.842L375.942 212.856C376.044 212.265 375.84 211.65 375.406 211.232L368.155 204.162C367.067 203.098 367.666 201.246 369.164 201.025L379.197 199.567C379.796 199.488 380.309 199.11 380.584 198.566L385.061 189.478C385.739 188.114 387.686 188.114 388.356 189.478Z" fill="#F58232"/>
<path d="M432.924 189.478L437.4 198.566C437.676 199.11 438.189 199.488 438.788 199.567L448.821 201.025C450.319 201.246 450.918 203.098 449.838 204.162L442.579 211.232C442.145 211.65 441.948 212.265 442.051 212.856L443.761 222.842C444.013 224.34 442.445 225.483 441.097 224.781L432.12 220.06C431.591 219.784 430.953 219.784 430.425 220.06L421.447 224.781C420.1 225.483 418.531 224.34 418.783 222.842L420.502 212.856C420.604 212.265 420.399 211.65 419.966 211.232L412.714 204.162C411.627 203.098 412.226 201.246 413.723 201.025L423.757 199.567C424.356 199.488 424.876 199.11 425.144 198.566L429.629 189.478C430.299 188.114 432.246 188.114 432.924 189.478Z" fill="#F58232"/>
</g>
<defs>
<linearGradient id="paint0_linear_57_1065" x1="542.294" y1="237.936" x2="749.456" y2="237.936" gradientUnits="userSpaceOnUse">
<stop stop-color="#F1CC52"/>
<stop offset="1" stop-color="#FF6935"/>
</linearGradient>
<clipPath id="clip0_57_1065">
<rect width="800" height="800" fill="white"/>
</clipPath>
</defs>
</svg>
