<svg width="800" height="800" viewBox="0 0 800 800" fill="none" xmlns="http://www.w3.org/2000/svg">
<path d="M734 416.238C734 600.195 584.86 749.335 400.895 749.335C216.915 749.335 67.7829 600.195 67.7829 416.238C67.7829 232.258 216.915 83.1339 400.895 83.1339C584.86 83.1339 734 232.258 734 416.238Z" stroke="#273376" stroke-width="83.3333" stroke-miterlimit="2" stroke-linejoin="round"/>
<path d="M734 416.238C734 600.195 584.86 749.335 400.896 749.335C216.915 749.335 67.783 600.195 67.783 416.238C67.783 232.258 216.915 83.134 400.896 83.134C584.86 83.134 734 232.258 734 416.238Z" fill="white"/>
<path d="M516.297 661.162H236.291C225.638 661.162 216.998 652.506 216.998 641.853V50.2341C216.998 39.5887 225.638 30.9327 236.291 30.9327H516.297C526.959 30.9327 535.582 39.5887 535.582 50.2341V641.853C535.582 652.506 526.959 661.162 516.297 661.162Z" fill="#3A3F47"/>
<path d="M237.406 78.7161H515.165V612.359H237.406V78.7161Z" fill="white"/>
<path d="M276.234 60.8015H476.347V68.7591H276.234V60.8015Z" fill="#545B66"/>
<path d="M261.352 150.265H303.019V110.137H261.352V150.265ZM307.896 155.134H256.45V105.261H307.896V155.134Z" fill="#BCBCBC"/>
<path d="M313.392 121.066H415.763V126.416H313.392V121.066Z" fill="#BCBCBC"/>
<path d="M313.392 147.264H458.874V152.607H313.392V147.264Z" fill="#BCBCBC"/>
<path d="M313.391 133.988H354.577V139.331H313.391V133.988Z" fill="#BCBCBC"/>
<path d="M361.861 133.988H445.917V139.331H361.861V133.988Z" fill="#BCBCBC"/>
<path d="M453.466 133.988H496.12V139.331H453.466V133.988Z" fill="#BCBCBC"/>
<path d="M423.271 121.066H496.12V126.416H423.271V121.066Z" fill="#BCBCBC"/>
<path d="M282.125 145.57L268.937 129.783L272.996 128.026L281.002 137.596L292.169 114.821L296.645 115.977L282.125 145.57Z" fill="#046A38"/>
<path d="M261.352 236.393H303.019V196.29H261.352V236.393ZM307.896 241.278H256.45V191.389H307.896V241.278Z" fill="#BCBCBC"/>
<path d="M313.392 207.205H415.763V212.548H313.392V207.205Z" fill="#BCBCBC"/>
<path d="M313.392 233.407H458.874V238.75H313.392V233.407Z" fill="#BCBCBC"/>
<path d="M313.391 220.137H354.577V225.464H313.391V220.137Z" fill="#BCBCBC"/>
<path d="M361.861 220.137H445.917V225.464H361.861V220.137Z" fill="#BCBCBC"/>
<path d="M453.466 220.137H496.12V225.464H453.466V220.137Z" fill="#BCBCBC"/>
<path d="M423.271 207.205H496.12V212.548H423.271V207.205Z" fill="#BCBCBC"/>
<path d="M261.352 322.534H303.019V282.415H261.352V322.534ZM307.896 327.412H256.45V277.537H307.896V327.412Z" fill="#BCBCBC"/>
<path d="M313.392 293.342H415.763V298.685H313.392V293.342Z" fill="#BCBCBC"/>
<path d="M313.392 319.55H458.874V324.885H313.392V319.55Z" fill="#BCBCBC"/>
<path d="M313.391 306.265H354.577V311.608H313.391V306.265Z" fill="#BCBCBC"/>
<path d="M361.861 306.265H445.917V311.608H361.861V306.265Z" fill="#BCBCBC"/>
<path d="M453.466 306.265H496.12V311.608H453.466V306.265Z" fill="#BCBCBC"/>
<path d="M423.271 293.342H496.12V298.685H423.271V293.342Z" fill="#BCBCBC"/>
<path d="M282.125 317.851L268.937 302.063L272.996 300.306L281.002 309.869L292.169 287.102L296.645 288.249L282.125 317.851Z" fill="#046A38"/>
<path d="M261.352 408.667H303.019V368.572H261.352V408.667ZM307.896 413.553H256.45V363.671H307.896V413.553Z" fill="#BCBCBC"/>
<path d="M313.392 379.483H415.763V384.818H313.392V379.483Z" fill="#BCBCBC"/>
<path d="M313.392 405.684H458.874V411.035H313.392V405.684Z" fill="#BCBCBC"/>
<path d="M313.391 392.404H354.577V397.739H313.391V392.404Z" fill="#BCBCBC"/>
<path d="M361.861 392.404H445.917V397.739H361.861V392.404Z" fill="#BCBCBC"/>
<path d="M453.466 392.404H496.12V397.739H453.466V392.404Z" fill="#BCBCBC"/>
<path d="M423.271 379.483H496.12V384.818H423.271V379.483Z" fill="#BCBCBC"/>
<path d="M282.125 403.98L268.937 388.208L272.996 386.435L281.002 396.014L292.169 373.247L296.645 374.378L282.125 403.98Z" fill="#046A38"/>
<path d="M261.352 494.811H303.019V454.692H261.352V494.811ZM307.896 499.696H256.45V449.807H307.896V499.696Z" fill="#BCBCBC"/>
<path d="M313.392 465.61H415.763V470.96H313.392V465.61Z" fill="#BCBCBC"/>
<path d="M313.392 491.818H458.874V497.168H313.392V491.818Z" fill="#BCBCBC"/>
<path d="M313.391 478.542H354.577V483.892H313.391V478.542Z" fill="#BCBCBC"/>
<path d="M361.861 478.542H445.917V483.892H361.861V478.542Z" fill="#BCBCBC"/>
<path d="M453.466 478.542H496.12V483.892H453.466V478.542Z" fill="#BCBCBC"/>
<path d="M423.271 465.61H496.12V470.96H423.271V465.61Z" fill="#BCBCBC"/>
<path d="M261.352 580.945H303.019V540.834H261.352V580.945ZM307.896 585.83H256.45V535.949H307.896V585.83Z" fill="#BCBCBC"/>
<path d="M313.392 551.751H415.763V557.101H313.392V551.751Z" fill="#BCBCBC"/>
<path d="M313.392 577.951H458.874V583.302H313.392V577.951Z" fill="#BCBCBC"/>
<path d="M313.391 564.683H354.577V570.033H313.391V564.683Z" fill="#BCBCBC"/>
<path d="M361.861 564.683H445.917V570.033H361.861V564.683Z" fill="#BCBCBC"/>
<path d="M453.466 564.683H496.12V570.033H453.466V564.683Z" fill="#BCBCBC"/>
<path d="M423.271 551.751H496.12V557.101H423.271V551.751Z" fill="#BCBCBC"/>
<path d="M282.125 576.269L268.937 560.481L272.996 558.716L281.002 568.295L292.169 545.52L296.645 546.659L282.125 576.269Z" fill="#046A38"/>
<path d="M295.334 206.292L291.836 203.107L281.207 214.755L269.078 203.003L265.772 206.404L278.014 218.245L267.184 230.101L270.682 233.286L281.424 221.542L291.941 231.73L295.23 228.321L284.609 218.044L295.334 206.292Z" fill="#EC1C24"/>
<path d="M295.334 463.809L291.836 460.624L281.207 472.272L269.078 460.52L265.772 463.929L278.014 475.754L267.184 487.627L270.682 490.803L281.424 479.059L291.941 489.247L295.23 485.854L284.609 475.553L295.334 463.809Z" fill="#EC1C24"/>
<path d="M81.0153 720.072L80.4057 729.225L70.9074 730.525L70.041 726.819L70.8192 718.171L81.0153 720.072Z" fill="#F7B690"/>
<path d="M104.134 740.304H65.9561V742.132H104.134V740.304Z" fill="#25182C"/>
<path d="M65.958 740.311H104.136C104.136 735.57 95.5438 731.47 88.8533 729.537C88.8533 729.537 83.695 727.187 82.0665 724.956C80.4621 722.734 79.6358 728.366 75.368 728.366C72.9453 728.366 71.7741 725.863 71.4211 724.748C71.2286 724.122 69.3755 723.833 69.1749 724.427L65.958 740.311Z" fill="#293042"/>
<path d="M141.229 717.801L142.488 728.037L134.306 730.829L133.159 729.673L131.201 716.894L141.229 717.801Z" fill="#F7B690"/>
<path d="M165.864 739.943H127.694V741.765H165.864V739.943Z" fill="#25182C"/>
<path d="M127.691 739.947H165.861C165.861 735.198 157.277 731.098 150.587 729.165C150.587 729.165 145.42 726.815 143.816 724.584C142.204 722.362 141.369 727.986 137.101 727.986C134.679 727.986 133.507 725.499 133.163 724.368C132.97 723.75 131.109 723.453 130.9 724.063L127.691 739.947Z" fill="#293042"/>
<path d="M115.078 571.716C115.078 571.716 87.0807 721.209 85.9015 721.305C84.7302 721.418 68.5094 723.568 67.3462 721.305C66.1589 719.043 95.0387 539.611 95.0387 539.611L115.078 538.721V571.716Z" fill="#25182C"/>
<path d="M127.158 543.129C127.158 543.129 144.847 583.593 146.604 642.347C148.377 701.077 146.9 720.331 146.604 721.309C146.323 722.304 130.102 722.095 128.634 721.309C127.158 720.539 124.214 646.952 116.841 617.005C109.485 587.042 95.0371 543.73 95.0371 543.129C95.0371 542.535 127.158 543.129 127.158 543.129Z" fill="#293042"/>
<path d="M115.966 466.508V478.501L105.754 480.073L106.612 462.152L115.966 466.508Z" fill="#F0A085"/>
<path d="M108.693 435.481C108.693 435.481 129.126 453.563 122.443 464.746C115.769 475.945 99.251 460.631 99.251 460.631C99.251 460.631 91.6058 459.443 92.5765 456.499C93.5633 453.563 97.4941 453.74 97.4941 453.74L92.4883 447.089L108.693 435.481Z" fill="#F7B690"/>
<path d="M77.725 458.275C81.9687 466.329 90.2315 461.796 90.2315 461.796C90.2315 461.796 96.0396 474.231 107.182 466.289C102.762 463.85 99.2725 460.625 99.2725 460.625C99.2725 460.625 91.6194 459.446 92.574 456.494C93.5688 453.566 97.4996 453.742 97.4996 453.742C97.0664 453.726 94.6036 449.964 94.732 449.739C94.8042 449.627 94.9325 449.554 95.0689 449.506C98.8634 447.838 103.043 446.771 106.188 444.051C106.789 443.538 107.319 442.96 107.872 442.407C109.356 440.858 111.787 438.909 112.276 436.759C112.83 434.417 112.83 432.219 111.835 429.972C106.533 418.003 92.3895 417.017 89.4454 431.753C89.4454 431.753 79.8268 429.972 78.0539 437.642C76.281 445.303 82.1853 446.875 82.1853 446.875C82.1853 446.875 73.4652 450.204 77.725 458.275Z" fill="#5D3522"/>
<path d="M105.756 480.557C105.756 480.557 102.796 498.326 143.027 498.15C175.886 497.789 196.775 464.553 196.775 464.553L188.689 457.63C188.689 457.63 164.911 486.558 142.385 482.836C129.959 480.774 125.779 477.894 125.779 477.894L105.756 480.557Z" fill="#A9000E"/>
<path d="M112.038 475.529C112.488 475.545 112.929 475.521 113.394 475.473C117.012 475.12 134.18 474.543 138.744 495.585C143.862 519.17 129.366 548.756 129.366 548.756L93.6917 548.058C93.6917 548.058 78.8266 498.93 83.3511 486.56C87.4344 475.393 108.043 475.433 112.038 475.529Z" fill="#D21D2C"/>
<path d="M190.715 452.978C188.055 457.132 188.156 461.975 190.957 463.775C193.764 465.55 198.198 463.651 200.865 459.501C203.537 455.344 203.429 450.497 200.624 448.704C197.826 446.915 193.389 448.832 190.715 452.978Z" fill="#F7B690"/>
<path d="M189.786 530.459L166.12 521.463L204.895 419.467L228.561 428.464L189.786 530.459Z" fill="#25182C"/>
<path d="M221.953 425.936L211.491 421.963L225.157 385.98L235.619 389.953L221.953 425.936Z" fill="#FFAC5A"/>
<path d="M181.43 285.332C165.292 327.782 186.633 375.263 229.077 391.391C271.522 407.518 319.011 386.18 335.139 343.735C351.258 301.288 329.936 253.804 287.475 237.697C245.04 221.565 197.556 242.913 181.43 285.332Z" fill="#FFAC5A"/>
<mask id="mask0_57_2824" style="mask-type:luminance" maskUnits="userSpaceOnUse" x="186" y="242" width="145" height="145">
<path d="M191.222 289.064C177.151 326.102 195.771 367.512 232.809 381.591C269.848 395.662 311.274 377.052 325.353 340.006C339.424 302.975 320.82 261.555 283.766 247.476C275.383 244.292 266.775 242.784 258.312 242.784C229.368 242.784 202.116 260.425 191.222 289.064Z" fill="white"/>
</mask>
<g mask="url(#mask0_57_2824)">
<path d="M673.574 784.058H149.253C141.007 775.835 136.386 771.215 128.163 762.984V-315.436C136.386 -323.675 141.007 -328.288 149.253 -336.535H673.574C681.797 -328.288 686.418 -323.675 694.649 -315.436V762.984C686.418 771.215 681.797 775.835 673.574 784.058Z" fill="#293042"/>
<path d="M164.453 -251.559H658.354V697.319H164.453V-251.559Z" fill="#FCF6F0"/>
<path d="M207.019 335.137H281.095V263.804H207.019V335.137ZM289.792 343.809H198.347V255.124H289.792V343.809Z" fill="#BCBCBC"/>
<path d="M299.578 283.217H481.577V292.732H299.578V283.217Z" fill="#BCBCBC"/>
<path d="M299.571 329.811H558.254V339.325H299.571V329.811Z" fill="#BCBCBC"/>
<path d="M299.57 306.216H372.788V315.715H299.57V306.216Z" fill="#BCBCBC"/>
<path d="M243.966 326.794L220.501 298.725L227.737 295.612L241.976 312.619L261.831 272.139L269.789 274.153L243.966 326.794Z" fill="#046A38"/>
</g>
<path d="M98.877 488.905C98.877 488.905 125.198 520.938 164.683 513.285C196.9 506.787 211.243 470.246 211.243 470.246L202.002 464.959C202.002 464.959 184.722 495.002 161.923 496.374C139.148 497.762 122.831 481.051 122.831 481.051L98.877 488.905Z" fill="#D21D2C"/>
<path d="M204.272 460.025C202.105 464.458 202.776 469.259 205.756 470.707C208.744 472.177 212.941 469.764 215.119 465.328C217.282 460.903 216.626 456.108 213.628 454.643C210.641 453.191 206.454 455.582 204.272 460.025Z" fill="#F7B690"/>
</svg>
